<?xml version="1.0" encoding="UTF-8" standalone="no"?>
<!DOCTYPE svg PUBLIC "-//W3C//DTD SVG 1.1//EN"
 "http://www.w3.org/Graphics/SVG/1.1/DTD/svg11.dtd">
<!-- Generated by graphviz version 2.38.0 (20140413.2041)
 -->
<!-- Title: planetaryir data flow Pages: 1 -->
<svg width="686pt" height="638pt"
 viewBox="0.00 0.00 686.16 637.99" xmlns="http://www.w3.org/2000/svg" xmlns:xlink="http://www.w3.org/1999/xlink">
<g id="graph0" class="graph" transform="scale(1 1) rotate(0) translate(4 633.99)">
<title>planetaryir data flow</title>
<polygon fill="white" stroke="none" points="-4,4 -4,-633.99 682.16,-633.99 682.16,4 -4,4"/>
<!-- process/
init/app -->
<g id="node1" class="node"><title>process/
init/app</title>
<ellipse fill="none" stroke="#cc2222" cx="346.119" cy="-19.799" rx="38.0748" ry="19.6"/>
<text text-anchor="middle" x="346.119" y="-21.799" font-family="Ubuntu Mono,Envy Code R,Oxygen Mono,Consolas,Menlo,Monaco,Andale Mono" font-size="10.00">process/</text>
<text text-anchor="middle" x="346.119" y="-11.799" font-family="Ubuntu Mono,Envy Code R,Oxygen Mono,Consolas,Menlo,Monaco,Andale Mono" font-size="10.00">init/app</text>
</g>
<!-- process/
init/relation/articles -->
<g id="node2" class="node"><title>process/
init/relation/articles</title>
<ellipse fill="none" stroke="#cc2222" cx="346.119" cy="-95.397" rx="69.7422" ry="19.6"/>
<text text-anchor="middle" x="346.119" y="-97.397" font-family="Ubuntu Mono,Envy Code R,Oxygen Mono,Consolas,Menlo,Monaco,Andale Mono" font-size="10.00">process/</text>
<text text-anchor="middle" x="346.119" y="-87.397" font-family="Ubuntu Mono,Envy Code R,Oxygen Mono,Consolas,Menlo,Monaco,Andale Mono" font-size="10.00">init/relation/articles</text>
</g>
<!-- process/
init/app&#45;&gt;process/
init/relation/articles -->
<g id="edge1" class="edge"><title>process/
init/app&#45;&gt;process/
init/relation/articles</title>
<path fill="none" stroke="#999999" d="M346.119,-39.7523C346.119,-47.5644 346.119,-56.7923 346.119,-65.419"/>
<polygon fill="#999999" stroke="#999999" points="342.619,-65.5079 346.119,-75.5079 349.619,-65.5079 342.619,-65.5079"/>
</g>
<!-- data/
articles -->
<g id="node6" class="node"><title>data/
articles</title>
<polygon fill="none" stroke="#2222cc" points="373.119,-187.196 323.119,-187.196 319.119,-183.196 319.119,-151.196 369.119,-151.196 373.119,-155.196 373.119,-187.196"/>
<polyline fill="none" stroke="#2222cc" points="369.119,-183.196 319.119,-183.196 "/>
<polyline fill="none" stroke="#2222cc" points="369.119,-183.196 369.119,-151.196 "/>
<polyline fill="none" stroke="#2222cc" points="369.119,-183.196 373.119,-187.196 "/>
<text text-anchor="middle" x="346.119" y="-171.196" font-family="Ubuntu Mono,Envy Code R,Oxygen Mono,Consolas,Menlo,Monaco,Andale Mono" font-size="10.00">data/</text>
<text text-anchor="middle" x="346.119" y="-161.196" font-family="Ubuntu Mono,Envy Code R,Oxygen Mono,Consolas,Menlo,Monaco,Andale Mono" font-size="10.00">articles</text>
</g>
<!-- process/
init/relation/articles&#45;&gt;data/
articles -->
<g id="edge7" class="edge"><title>process/
init/relation/articles&#45;&gt;data/
articles</title>
<path fill="none" stroke="#999999" d="M346.119,-115.261C346.119,-123.178 346.119,-132.533 346.119,-141.159"/>
<polygon fill="#999999" stroke="#999999" points="342.619,-141.175 346.119,-151.175 349.619,-141.175 342.619,-141.175"/>
</g>
<!-- process/
ext_person_mention_by_map_person_mention -->
<g id="node3" class="node"><title>process/
ext_person_mention_by_map_person_mention</title>
<ellipse fill="none" stroke="#cc2222" cx="159.119" cy="-390.593" rx="159.238" ry="19.6"/>
<text text-anchor="middle" x="159.119" y="-392.593" font-family="Ubuntu Mono,Envy Code R,Oxygen Mono,Consolas,Menlo,Monaco,Andale Mono" font-size="10.00">process/</text>
<text text-anchor="middle" x="159.119" y="-382.593" font-family="Ubuntu Mono,Envy Code R,Oxygen Mono,Consolas,Menlo,Monaco,Andale Mono" font-size="10.00">ext_person_mention_by_map_person_mention</text>
</g>
<!-- data/
person_mention -->
<g id="node10" class="node"><title>data/
person_mention</title>
<polygon fill="none" stroke="#2222cc" points="202.833,-482.392 119.405,-482.392 115.405,-478.392 115.405,-446.392 198.833,-446.392 202.833,-450.392 202.833,-482.392"/>
<polyline fill="none" stroke="#2222cc" points="198.833,-478.392 115.405,-478.392 "/>
<polyline fill="none" stroke="#2222cc" points="198.833,-478.392 198.833,-446.392 "/>
<polyline fill="none" stroke="#2222cc" points="198.833,-478.392 202.833,-482.392 "/>
<text text-anchor="middle" x="159.119" y="-466.392" font-family="Ubuntu Mono,Envy Code R,Oxygen Mono,Consolas,Menlo,Monaco,Andale Mono" font-size="10.00">data/</text>
<text text-anchor="middle" x="159.119" y="-456.392" font-family="Ubuntu Mono,Envy Code R,Oxygen Mono,Consolas,Menlo,Monaco,Andale Mono" font-size="10.00">person_mention</text>
</g>
<!-- process/
ext_person_mention_by_map_person_mention&#45;&gt;data/
person_mention -->
<g id="edge8" class="edge"><title>process/
ext_person_mention_by_map_person_mention&#45;&gt;data/
person_mention</title>
<path fill="none" stroke="#999999" d="M159.119,-410.457C159.119,-418.374 159.119,-427.729 159.119,-436.355"/>
<polygon fill="#999999" stroke="#999999" points="155.619,-436.371 159.119,-446.371 162.619,-436.371 155.619,-436.371"/>
</g>
<!-- data/
sentences -->
<g id="node4" class="node"><title>data/
sentences</title>
<polygon fill="none" stroke="#2222cc" points="376.706,-334.794 319.532,-334.794 315.532,-330.794 315.532,-298.794 372.706,-298.794 376.706,-302.794 376.706,-334.794"/>
<polyline fill="none" stroke="#2222cc" points="372.706,-330.794 315.532,-330.794 "/>
<polyline fill="none" stroke="#2222cc" points="372.706,-330.794 372.706,-298.794 "/>
<polyline fill="none" stroke="#2222cc" points="372.706,-330.794 376.706,-334.794 "/>
<text text-anchor="middle" x="346.119" y="-318.794" font-family="Ubuntu Mono,Envy Code R,Oxygen Mono,Consolas,Menlo,Monaco,Andale Mono" font-size="10.00">data/</text>
<text text-anchor="middle" x="346.119" y="-308.794" font-family="Ubuntu Mono,Envy Code R,Oxygen Mono,Consolas,Menlo,Monaco,Andale Mono" font-size="10.00">sentences</text>
</g>
<!-- data/
sentences&#45;&gt;process/
ext_person_mention_by_map_person_mention -->
<g id="edge2" class="edge"><title>data/
sentences&#45;&gt;process/
ext_person_mention_by_map_person_mention</title>
<path fill="none" stroke="#999999" d="M315.24,-329.65C288.142,-340.054 248.058,-355.445 215.291,-368.026"/>
<polygon fill="#999999" stroke="#999999" points="213.902,-364.81 205.821,-371.662 216.411,-371.345 213.902,-364.81"/>
</g>
<!-- process/
ext_target_feature_by_extract_target_features -->
<g id="node7" class="node"><title>process/
ext_target_feature_by_extract_target_features</title>
<ellipse fill="none" stroke="#cc2222" cx="408.119" cy="-538.191" rx="156.515" ry="19.6"/>
<text text-anchor="middle" x="408.119" y="-540.191" font-family="Ubuntu Mono,Envy Code R,Oxygen Mono,Consolas,Menlo,Monaco,Andale Mono" font-size="10.00">process/</text>
<text text-anchor="middle" x="408.119" y="-530.191" font-family="Ubuntu Mono,Envy Code R,Oxygen Mono,Consolas,Menlo,Monaco,Andale Mono" font-size="10.00">ext_target_feature_by_extract_target_features</text>
</g>
<!-- data/
sentences&#45;&gt;process/
ext_target_feature_by_extract_target_features -->
<g id="edge4" class="edge"><title>data/
sentences&#45;&gt;process/
ext_target_feature_by_extract_target_features</title>
<path fill="none" stroke="#999999" d="M348.989,-335.011C352.261,-353.719 358.079,-384.415 365.119,-410.392 374.406,-444.657 387.916,-483.168 397.305,-508.663"/>
<polygon fill="#999999" stroke="#999999" points="394.043,-509.933 400.807,-518.087 400.605,-507.494 394.043,-509.933"/>
</g>
<!-- process/
ext_target_mention_by_map_target_mention -->
<g id="node9" class="node"><title>process/
ext_target_mention_by_map_target_mention</title>
<ellipse fill="none" stroke="#cc2222" cx="526.119" cy="-390.593" rx="152.082" ry="19.6"/>
<text text-anchor="middle" x="526.119" y="-392.593" font-family="Ubuntu Mono,Envy Code R,Oxygen Mono,Consolas,Menlo,Monaco,Andale Mono" font-size="10.00">process/</text>
<text text-anchor="middle" x="526.119" y="-382.593" font-family="Ubuntu Mono,Envy Code R,Oxygen Mono,Consolas,Menlo,Monaco,Andale Mono" font-size="10.00">ext_target_mention_by_map_target_mention</text>
</g>
<!-- data/
sentences&#45;&gt;process/
ext_target_mention_by_map_target_mention -->
<g id="edge6" class="edge"><title>data/
sentences&#45;&gt;process/
ext_target_mention_by_map_target_mention</title>
<path fill="none" stroke="#999999" d="M377.062,-330.137C403.024,-340.492 440.724,-355.53 471.713,-367.891"/>
<polygon fill="#999999" stroke="#999999" points="470.509,-371.179 481.094,-371.633 473.102,-364.677 470.509,-371.179"/>
</g>
<!-- process/
ext_sentences_by_nlp_markup -->
<g id="node5" class="node"><title>process/
ext_sentences_by_nlp_markup</title>
<ellipse fill="none" stroke="#cc2222" cx="346.119" cy="-242.995" rx="109.387" ry="19.6"/>
<text text-anchor="middle" x="346.119" y="-244.995" font-family="Ubuntu Mono,Envy Code R,Oxygen Mono,Consolas,Menlo,Monaco,Andale Mono" font-size="10.00">process/</text>
<text text-anchor="middle" x="346.119" y="-234.995" font-family="Ubuntu Mono,Envy Code R,Oxygen Mono,Consolas,Menlo,Monaco,Andale Mono" font-size="10.00">ext_sentences_by_nlp_markup</text>
</g>
<!-- process/
ext_sentences_by_nlp_markup&#45;&gt;data/
sentences -->
<g id="edge9" class="edge"><title>process/
ext_sentences_by_nlp_markup&#45;&gt;data/
sentences</title>
<path fill="none" stroke="#999999" d="M346.119,-262.859C346.119,-270.776 346.119,-280.131 346.119,-288.757"/>
<polygon fill="#999999" stroke="#999999" points="342.619,-288.773 346.119,-298.773 349.619,-288.773 342.619,-288.773"/>
</g>
<!-- data/
articles&#45;&gt;process/
ext_sentences_by_nlp_markup -->
<g id="edge3" class="edge"><title>data/
articles&#45;&gt;process/
ext_sentences_by_nlp_markup</title>
<path fill="none" stroke="#999999" d="M346.119,-187.211C346.119,-194.877 346.119,-204.147 346.119,-212.866"/>
<polygon fill="#999999" stroke="#999999" points="342.619,-213.081 346.119,-223.081 349.619,-213.081 342.619,-213.081"/>
</g>
<!-- data/
target_feature -->
<g id="node11" class="node"><title>data/
target_feature</title>
<polygon fill="none" stroke="#2222cc" points="447.385,-629.99 372.853,-629.99 368.853,-625.99 368.853,-593.99 443.385,-593.99 447.385,-597.99 447.385,-629.99"/>
<polyline fill="none" stroke="#2222cc" points="443.385,-625.99 368.853,-625.99 "/>
<polyline fill="none" stroke="#2222cc" points="443.385,-625.99 443.385,-593.99 "/>
<polyline fill="none" stroke="#2222cc" points="443.385,-625.99 447.385,-629.99 "/>
<text text-anchor="middle" x="408.119" y="-613.99" font-family="Ubuntu Mono,Envy Code R,Oxygen Mono,Consolas,Menlo,Monaco,Andale Mono" font-size="10.00">data/</text>
<text text-anchor="middle" x="408.119" y="-603.99" font-family="Ubuntu Mono,Envy Code R,Oxygen Mono,Consolas,Menlo,Monaco,Andale Mono" font-size="10.00">target_feature</text>
</g>
<!-- process/
ext_target_feature_by_extract_target_features&#45;&gt;data/
target_feature -->
<g id="edge10" class="edge"><title>process/
ext_target_feature_by_extract_target_features&#45;&gt;data/
target_feature</title>
<path fill="none" stroke="#999999" d="M408.119,-558.055C408.119,-565.972 408.119,-575.326 408.119,-583.953"/>
<polygon fill="#999999" stroke="#999999" points="404.619,-583.969 408.119,-593.969 411.619,-583.969 404.619,-583.969"/>
</g>
<!-- data/
target_mention -->
<g id="node8" class="node"><title>data/
target_mention</title>
<polygon fill="none" stroke="#2222cc" points="511.329,-482.392 432.91,-482.392 428.91,-478.392 428.91,-446.392 507.329,-446.392 511.329,-450.392 511.329,-482.392"/>
<polyline fill="none" stroke="#2222cc" points="507.329,-478.392 428.91,-478.392 "/>
<polyline fill="none" stroke="#2222cc" points="507.329,-478.392 507.329,-446.392 "/>
<polyline fill="none" stroke="#2222cc" points="507.329,-478.392 511.329,-482.392 "/>
<text text-anchor="middle" x="470.119" y="-466.392" font-family="Ubuntu Mono,Envy Code R,Oxygen Mono,Consolas,Menlo,Monaco,Andale Mono" font-size="10.00">data/</text>
<text text-anchor="middle" x="470.119" y="-456.392" font-family="Ubuntu Mono,Envy Code R,Oxygen Mono,Consolas,Menlo,Monaco,Andale Mono" font-size="10.00">target_mention</text>
</g>
<!-- data/
target_mention&#45;&gt;process/
ext_target_feature_by_extract_target_features -->
<g id="edge5" class="edge"><title>data/
target_mention&#45;&gt;process/
ext_target_feature_by_extract_target_features</title>
<path fill="none" stroke="#999999" d="M455.426,-482.407C448.152,-490.831 439.204,-501.193 431.055,-510.63"/>
<polygon fill="#999999" stroke="#999999" points="428.339,-508.421 424.452,-518.277 433.637,-512.996 428.339,-508.421"/>
</g>
<!-- process/
ext_target_mention_by_map_target_mention&#45;&gt;data/
target_mention -->
<g id="edge11" class="edge"><title>process/
ext_target_mention_by_map_target_mention&#45;&gt;data/
target_mention</title>
<path fill="none" stroke="#999999" d="M511.406,-410.457C504.756,-418.982 496.806,-429.176 489.665,-438.332"/>
<polygon fill="#999999" stroke="#999999" points="486.785,-436.333 483.395,-446.371 492.305,-440.638 486.785,-436.333"/>
</g>
</g>
</svg>
