<?xml version="1.0" encoding="UTF-8" standalone="no"?>
<!DOCTYPE svg PUBLIC "-//W3C//DTD SVG 1.1//EN"
 "http://www.w3.org/Graphics/SVG/1.1/DTD/svg11.dtd">
<!-- Generated by graphviz version 2.38.0 (20140413.2041)
 -->
<!-- Title: planetaryIR data flow Pages: 1 -->
<svg width="226pt" height="343pt"
 viewBox="0.00 0.00 226.39 342.79" xmlns="http://www.w3.org/2000/svg" xmlns:xlink="http://www.w3.org/1999/xlink">
<g id="graph0" class="graph" transform="scale(1 1) rotate(0) translate(4 338.794)">
<title>planetaryIR data flow</title>
<polygon fill="white" stroke="none" points="-4,4 -4,-338.794 222.387,-338.794 222.387,4 -4,4"/>
<!-- process/
init/app -->
<g id="node1" class="node"><title>process/
init/app</title>
<ellipse fill="none" stroke="#cc2222" cx="109.193" cy="-19.799" rx="38.0748" ry="19.6"/>
<text text-anchor="middle" x="109.193" y="-21.799" font-family="Ubuntu Mono,Envy Code R,Oxygen Mono,Consolas,Menlo,Monaco,Andale Mono" font-size="10.00">process/</text>
<text text-anchor="middle" x="109.193" y="-11.799" font-family="Ubuntu Mono,Envy Code R,Oxygen Mono,Consolas,Menlo,Monaco,Andale Mono" font-size="10.00">init/app</text>
</g>
<!-- process/
init/relation/articles -->
<g id="node2" class="node"><title>process/
init/relation/articles</title>
<ellipse fill="none" stroke="#cc2222" cx="109.193" cy="-95.397" rx="69.7422" ry="19.6"/>
<text text-anchor="middle" x="109.193" y="-97.397" font-family="Ubuntu Mono,Envy Code R,Oxygen Mono,Consolas,Menlo,Monaco,Andale Mono" font-size="10.00">process/</text>
<text text-anchor="middle" x="109.193" y="-87.397" font-family="Ubuntu Mono,Envy Code R,Oxygen Mono,Consolas,Menlo,Monaco,Andale Mono" font-size="10.00">init/relation/articles</text>
</g>
<!-- process/
init/app&#45;&gt;process/
init/relation/articles -->
<g id="edge1" class="edge"><title>process/
init/app&#45;&gt;process/
init/relation/articles</title>
<path fill="none" stroke="#999999" d="M109.193,-39.7523C109.193,-47.5644 109.193,-56.7923 109.193,-65.419"/>
<polygon fill="#999999" stroke="#999999" points="105.694,-65.5079 109.193,-75.5079 112.694,-65.5079 105.694,-65.5079"/>
</g>
<!-- data/
articles -->
<g id="node4" class="node"><title>data/
articles</title>
<polygon fill="none" stroke="#2222cc" points="136.193,-187.196 86.1934,-187.196 82.1934,-183.196 82.1934,-151.196 132.193,-151.196 136.193,-155.196 136.193,-187.196"/>
<polyline fill="none" stroke="#2222cc" points="132.193,-183.196 82.1934,-183.196 "/>
<polyline fill="none" stroke="#2222cc" points="132.193,-183.196 132.193,-151.196 "/>
<polyline fill="none" stroke="#2222cc" points="132.193,-183.196 136.193,-187.196 "/>
<text text-anchor="middle" x="109.193" y="-171.196" font-family="Ubuntu Mono,Envy Code R,Oxygen Mono,Consolas,Menlo,Monaco,Andale Mono" font-size="10.00">data/</text>
<text text-anchor="middle" x="109.193" y="-161.196" font-family="Ubuntu Mono,Envy Code R,Oxygen Mono,Consolas,Menlo,Monaco,Andale Mono" font-size="10.00">articles</text>
</g>
<!-- process/
init/relation/articles&#45;&gt;data/
articles -->
<g id="edge3" class="edge"><title>process/
init/relation/articles&#45;&gt;data/
articles</title>
<path fill="none" stroke="#999999" d="M109.193,-115.261C109.193,-123.178 109.193,-132.533 109.193,-141.159"/>
<polygon fill="#999999" stroke="#999999" points="105.694,-141.175 109.193,-151.175 112.694,-141.175 105.694,-141.175"/>
</g>
<!-- process/
ext_sentences_by_nlp_markup -->
<g id="node3" class="node"><title>process/
ext_sentences_by_nlp_markup</title>
<ellipse fill="none" stroke="#cc2222" cx="109.193" cy="-242.995" rx="109.387" ry="19.6"/>
<text text-anchor="middle" x="109.193" y="-244.995" font-family="Ubuntu Mono,Envy Code R,Oxygen Mono,Consolas,Menlo,Monaco,Andale Mono" font-size="10.00">process/</text>
<text text-anchor="middle" x="109.193" y="-234.995" font-family="Ubuntu Mono,Envy Code R,Oxygen Mono,Consolas,Menlo,Monaco,Andale Mono" font-size="10.00">ext_sentences_by_nlp_markup</text>
</g>
<!-- data/
sentences -->
<g id="node5" class="node"><title>data/
sentences</title>
<polygon fill="none" stroke="#2222cc" points="139.781,-334.794 82.6061,-334.794 78.6061,-330.794 78.6061,-298.794 135.781,-298.794 139.781,-302.794 139.781,-334.794"/>
<polyline fill="none" stroke="#2222cc" points="135.781,-330.794 78.6061,-330.794 "/>
<polyline fill="none" stroke="#2222cc" points="135.781,-330.794 135.781,-298.794 "/>
<polyline fill="none" stroke="#2222cc" points="135.781,-330.794 139.781,-334.794 "/>
<text text-anchor="middle" x="109.193" y="-318.794" font-family="Ubuntu Mono,Envy Code R,Oxygen Mono,Consolas,Menlo,Monaco,Andale Mono" font-size="10.00">data/</text>
<text text-anchor="middle" x="109.193" y="-308.794" font-family="Ubuntu Mono,Envy Code R,Oxygen Mono,Consolas,Menlo,Monaco,Andale Mono" font-size="10.00">sentences</text>
</g>
<!-- process/
ext_sentences_by_nlp_markup&#45;&gt;data/
sentences -->
<g id="edge4" class="edge"><title>process/
ext_sentences_by_nlp_markup&#45;&gt;data/
sentences</title>
<path fill="none" stroke="#999999" d="M109.193,-262.859C109.193,-270.776 109.193,-280.131 109.193,-288.757"/>
<polygon fill="#999999" stroke="#999999" points="105.694,-288.773 109.193,-298.773 112.694,-288.773 105.694,-288.773"/>
</g>
<!-- data/
articles&#45;&gt;process/
ext_sentences_by_nlp_markup -->
<g id="edge2" class="edge"><title>data/
articles&#45;&gt;process/
ext_sentences_by_nlp_markup</title>
<path fill="none" stroke="#999999" d="M109.193,-187.211C109.193,-194.877 109.193,-204.147 109.193,-212.866"/>
<polygon fill="#999999" stroke="#999999" points="105.694,-213.081 109.193,-223.081 112.694,-213.081 105.694,-213.081"/>
</g>
</g>
</svg>
