<?xml version="1.0" encoding="UTF-8" standalone="no"?>
<!DOCTYPE svg PUBLIC "-//W3C//DTD SVG 1.1//EN"
 "http://www.w3.org/Graphics/SVG/1.1/DTD/svg11.dtd">
<!-- Generated by graphviz version 2.38.0 (20140413.2041)
 -->
<!-- Title: planetaryir data flow Pages: 1 -->
<svg width="648pt" height="490pt"
 viewBox="0.00 0.00 648.16 490.39" xmlns="http://www.w3.org/2000/svg" xmlns:xlink="http://www.w3.org/1999/xlink">
<g id="graph0" class="graph" transform="scale(1 1) rotate(0) translate(4 486.392)">
<title>planetaryir data flow</title>
<polygon fill="white" stroke="none" points="-4,4 -4,-486.392 644.16,-486.392 644.16,4 -4,4"/>
<!-- process/
init/app -->
<g id="node1" class="node"><title>process/
init/app</title>
<ellipse fill="none" stroke="#cc2222" cx="323.119" cy="-19.799" rx="38.0748" ry="19.6"/>
<text text-anchor="middle" x="323.119" y="-21.799" font-family="Ubuntu Mono,Envy Code R,Oxygen Mono,Consolas,Menlo,Monaco,Andale Mono" font-size="10.00">process/</text>
<text text-anchor="middle" x="323.119" y="-11.799" font-family="Ubuntu Mono,Envy Code R,Oxygen Mono,Consolas,Menlo,Monaco,Andale Mono" font-size="10.00">init/app</text>
</g>
<!-- process/
init/relation/articles -->
<g id="node2" class="node"><title>process/
init/relation/articles</title>
<ellipse fill="none" stroke="#cc2222" cx="323.119" cy="-95.397" rx="69.7422" ry="19.6"/>
<text text-anchor="middle" x="323.119" y="-97.397" font-family="Ubuntu Mono,Envy Code R,Oxygen Mono,Consolas,Menlo,Monaco,Andale Mono" font-size="10.00">process/</text>
<text text-anchor="middle" x="323.119" y="-87.397" font-family="Ubuntu Mono,Envy Code R,Oxygen Mono,Consolas,Menlo,Monaco,Andale Mono" font-size="10.00">init/relation/articles</text>
</g>
<!-- process/
init/app&#45;&gt;process/
init/relation/articles -->
<g id="edge1" class="edge"><title>process/
init/app&#45;&gt;process/
init/relation/articles</title>
<path fill="none" stroke="#999999" d="M323.119,-39.7523C323.119,-47.5644 323.119,-56.7923 323.119,-65.419"/>
<polygon fill="#999999" stroke="#999999" points="319.619,-65.5079 323.119,-75.5079 326.619,-65.5079 319.619,-65.5079"/>
</g>
<!-- data/
articles -->
<g id="node6" class="node"><title>data/
articles</title>
<polygon fill="none" stroke="#2222cc" points="350.119,-187.196 300.119,-187.196 296.119,-183.196 296.119,-151.196 346.119,-151.196 350.119,-155.196 350.119,-187.196"/>
<polyline fill="none" stroke="#2222cc" points="346.119,-183.196 296.119,-183.196 "/>
<polyline fill="none" stroke="#2222cc" points="346.119,-183.196 346.119,-151.196 "/>
<polyline fill="none" stroke="#2222cc" points="346.119,-183.196 350.119,-187.196 "/>
<text text-anchor="middle" x="323.119" y="-171.196" font-family="Ubuntu Mono,Envy Code R,Oxygen Mono,Consolas,Menlo,Monaco,Andale Mono" font-size="10.00">data/</text>
<text text-anchor="middle" x="323.119" y="-161.196" font-family="Ubuntu Mono,Envy Code R,Oxygen Mono,Consolas,Menlo,Monaco,Andale Mono" font-size="10.00">articles</text>
</g>
<!-- process/
init/relation/articles&#45;&gt;data/
articles -->
<g id="edge5" class="edge"><title>process/
init/relation/articles&#45;&gt;data/
articles</title>
<path fill="none" stroke="#999999" d="M323.119,-115.261C323.119,-123.178 323.119,-132.533 323.119,-141.159"/>
<polygon fill="#999999" stroke="#999999" points="319.619,-141.175 323.119,-151.175 326.619,-141.175 319.619,-141.175"/>
</g>
<!-- process/
ext_person_mention_by_map_person_mention -->
<g id="node3" class="node"><title>process/
ext_person_mention_by_map_person_mention</title>
<ellipse fill="none" stroke="#cc2222" cx="159.119" cy="-390.593" rx="159.238" ry="19.6"/>
<text text-anchor="middle" x="159.119" y="-392.593" font-family="Ubuntu Mono,Envy Code R,Oxygen Mono,Consolas,Menlo,Monaco,Andale Mono" font-size="10.00">process/</text>
<text text-anchor="middle" x="159.119" y="-382.593" font-family="Ubuntu Mono,Envy Code R,Oxygen Mono,Consolas,Menlo,Monaco,Andale Mono" font-size="10.00">ext_person_mention_by_map_person_mention</text>
</g>
<!-- data/
person_mention -->
<g id="node8" class="node"><title>data/
person_mention</title>
<polygon fill="none" stroke="#2222cc" points="202.833,-482.392 119.405,-482.392 115.405,-478.392 115.405,-446.392 198.833,-446.392 202.833,-450.392 202.833,-482.392"/>
<polyline fill="none" stroke="#2222cc" points="198.833,-478.392 115.405,-478.392 "/>
<polyline fill="none" stroke="#2222cc" points="198.833,-478.392 198.833,-446.392 "/>
<polyline fill="none" stroke="#2222cc" points="198.833,-478.392 202.833,-482.392 "/>
<text text-anchor="middle" x="159.119" y="-466.392" font-family="Ubuntu Mono,Envy Code R,Oxygen Mono,Consolas,Menlo,Monaco,Andale Mono" font-size="10.00">data/</text>
<text text-anchor="middle" x="159.119" y="-456.392" font-family="Ubuntu Mono,Envy Code R,Oxygen Mono,Consolas,Menlo,Monaco,Andale Mono" font-size="10.00">person_mention</text>
</g>
<!-- process/
ext_person_mention_by_map_person_mention&#45;&gt;data/
person_mention -->
<g id="edge6" class="edge"><title>process/
ext_person_mention_by_map_person_mention&#45;&gt;data/
person_mention</title>
<path fill="none" stroke="#999999" d="M159.119,-410.457C159.119,-418.374 159.119,-427.729 159.119,-436.355"/>
<polygon fill="#999999" stroke="#999999" points="155.619,-436.371 159.119,-446.371 162.619,-436.371 155.619,-436.371"/>
</g>
<!-- data/
sentences -->
<g id="node4" class="node"><title>data/
sentences</title>
<polygon fill="none" stroke="#2222cc" points="353.706,-334.794 296.532,-334.794 292.532,-330.794 292.532,-298.794 349.706,-298.794 353.706,-302.794 353.706,-334.794"/>
<polyline fill="none" stroke="#2222cc" points="349.706,-330.794 292.532,-330.794 "/>
<polyline fill="none" stroke="#2222cc" points="349.706,-330.794 349.706,-298.794 "/>
<polyline fill="none" stroke="#2222cc" points="349.706,-330.794 353.706,-334.794 "/>
<text text-anchor="middle" x="323.119" y="-318.794" font-family="Ubuntu Mono,Envy Code R,Oxygen Mono,Consolas,Menlo,Monaco,Andale Mono" font-size="10.00">data/</text>
<text text-anchor="middle" x="323.119" y="-308.794" font-family="Ubuntu Mono,Envy Code R,Oxygen Mono,Consolas,Menlo,Monaco,Andale Mono" font-size="10.00">sentences</text>
</g>
<!-- data/
sentences&#45;&gt;process/
ext_person_mention_by_map_person_mention -->
<g id="edge2" class="edge"><title>data/
sentences&#45;&gt;process/
ext_person_mention_by_map_person_mention</title>
<path fill="none" stroke="#999999" d="M292.272,-331.299C269.115,-341.437 236.895,-355.543 209.951,-367.339"/>
<polygon fill="#999999" stroke="#999999" points="208.421,-364.188 200.664,-371.405 211.228,-370.6 208.421,-364.188"/>
</g>
<!-- process/
ext_target_mention_by_map_target_mention -->
<g id="node7" class="node"><title>process/
ext_target_mention_by_map_target_mention</title>
<ellipse fill="none" stroke="#cc2222" cx="488.119" cy="-390.593" rx="152.082" ry="19.6"/>
<text text-anchor="middle" x="488.119" y="-392.593" font-family="Ubuntu Mono,Envy Code R,Oxygen Mono,Consolas,Menlo,Monaco,Andale Mono" font-size="10.00">process/</text>
<text text-anchor="middle" x="488.119" y="-382.593" font-family="Ubuntu Mono,Envy Code R,Oxygen Mono,Consolas,Menlo,Monaco,Andale Mono" font-size="10.00">ext_target_mention_by_map_target_mention</text>
</g>
<!-- data/
sentences&#45;&gt;process/
ext_target_mention_by_map_target_mention -->
<g id="edge4" class="edge"><title>data/
sentences&#45;&gt;process/
ext_target_mention_by_map_target_mention</title>
<path fill="none" stroke="#999999" d="M353.768,-331.131C377.11,-341.288 409.767,-355.498 437.038,-367.365"/>
<polygon fill="#999999" stroke="#999999" points="435.87,-370.674 446.436,-371.455 438.663,-364.255 435.87,-370.674"/>
</g>
<!-- process/
ext_sentences_by_nlp_markup -->
<g id="node5" class="node"><title>process/
ext_sentences_by_nlp_markup</title>
<ellipse fill="none" stroke="#cc2222" cx="323.119" cy="-242.995" rx="109.387" ry="19.6"/>
<text text-anchor="middle" x="323.119" y="-244.995" font-family="Ubuntu Mono,Envy Code R,Oxygen Mono,Consolas,Menlo,Monaco,Andale Mono" font-size="10.00">process/</text>
<text text-anchor="middle" x="323.119" y="-234.995" font-family="Ubuntu Mono,Envy Code R,Oxygen Mono,Consolas,Menlo,Monaco,Andale Mono" font-size="10.00">ext_sentences_by_nlp_markup</text>
</g>
<!-- process/
ext_sentences_by_nlp_markup&#45;&gt;data/
sentences -->
<g id="edge7" class="edge"><title>process/
ext_sentences_by_nlp_markup&#45;&gt;data/
sentences</title>
<path fill="none" stroke="#999999" d="M323.119,-262.859C323.119,-270.776 323.119,-280.131 323.119,-288.757"/>
<polygon fill="#999999" stroke="#999999" points="319.619,-288.773 323.119,-298.773 326.619,-288.773 319.619,-288.773"/>
</g>
<!-- data/
articles&#45;&gt;process/
ext_sentences_by_nlp_markup -->
<g id="edge3" class="edge"><title>data/
articles&#45;&gt;process/
ext_sentences_by_nlp_markup</title>
<path fill="none" stroke="#999999" d="M323.119,-187.211C323.119,-194.877 323.119,-204.147 323.119,-212.866"/>
<polygon fill="#999999" stroke="#999999" points="319.619,-213.081 323.119,-223.081 326.619,-213.081 319.619,-213.081"/>
</g>
<!-- data/
target_mention -->
<g id="node9" class="node"><title>data/
target_mention</title>
<polygon fill="none" stroke="#2222cc" points="529.329,-482.392 450.91,-482.392 446.91,-478.392 446.91,-446.392 525.329,-446.392 529.329,-450.392 529.329,-482.392"/>
<polyline fill="none" stroke="#2222cc" points="525.329,-478.392 446.91,-478.392 "/>
<polyline fill="none" stroke="#2222cc" points="525.329,-478.392 525.329,-446.392 "/>
<polyline fill="none" stroke="#2222cc" points="525.329,-478.392 529.329,-482.392 "/>
<text text-anchor="middle" x="488.119" y="-466.392" font-family="Ubuntu Mono,Envy Code R,Oxygen Mono,Consolas,Menlo,Monaco,Andale Mono" font-size="10.00">data/</text>
<text text-anchor="middle" x="488.119" y="-456.392" font-family="Ubuntu Mono,Envy Code R,Oxygen Mono,Consolas,Menlo,Monaco,Andale Mono" font-size="10.00">target_mention</text>
</g>
<!-- process/
ext_target_mention_by_map_target_mention&#45;&gt;data/
target_mention -->
<g id="edge8" class="edge"><title>process/
ext_target_mention_by_map_target_mention&#45;&gt;data/
target_mention</title>
<path fill="none" stroke="#999999" d="M488.119,-410.457C488.119,-418.374 488.119,-427.729 488.119,-436.355"/>
<polygon fill="#999999" stroke="#999999" points="484.619,-436.371 488.119,-446.371 491.619,-436.371 484.619,-436.371"/>
</g>
</g>
</svg>
