<?xml version="1.0" encoding="UTF-8" standalone="no"?>
<!DOCTYPE svg PUBLIC "-//W3C//DTD SVG 1.1//EN"
 "http://www.w3.org/Graphics/SVG/1.1/DTD/svg11.dtd">
<!-- Generated by graphviz version 2.38.0 (20140413.2041)
 -->
<!-- Title: planetaryIR data flow Pages: 1 -->
<svg width="148pt" height="195pt"
 viewBox="0.00 0.00 147.74 195.20" xmlns="http://www.w3.org/2000/svg" xmlns:xlink="http://www.w3.org/1999/xlink">
<g id="graph0" class="graph" transform="scale(1 1) rotate(0) translate(4 191.196)">
<title>planetaryIR data flow</title>
<polygon fill="white" stroke="none" points="-4,4 -4,-191.196 143.742,-191.196 143.742,4 -4,4"/>
<!-- process/
init/app -->
<g id="node1" class="node"><title>process/
init/app</title>
<ellipse fill="none" stroke="#cc2222" cx="69.871" cy="-19.799" rx="38.0748" ry="19.6"/>
<text text-anchor="middle" x="69.871" y="-21.799" font-family="Ubuntu Mono,Envy Code R,Oxygen Mono,Consolas,Menlo,Monaco,Andale Mono" font-size="10.00">process/</text>
<text text-anchor="middle" x="69.871" y="-11.799" font-family="Ubuntu Mono,Envy Code R,Oxygen Mono,Consolas,Menlo,Monaco,Andale Mono" font-size="10.00">init/app</text>
</g>
<!-- process/
init/relation/articles -->
<g id="node2" class="node"><title>process/
init/relation/articles</title>
<ellipse fill="none" stroke="#cc2222" cx="69.871" cy="-95.397" rx="69.7422" ry="19.6"/>
<text text-anchor="middle" x="69.871" y="-97.397" font-family="Ubuntu Mono,Envy Code R,Oxygen Mono,Consolas,Menlo,Monaco,Andale Mono" font-size="10.00">process/</text>
<text text-anchor="middle" x="69.871" y="-87.397" font-family="Ubuntu Mono,Envy Code R,Oxygen Mono,Consolas,Menlo,Monaco,Andale Mono" font-size="10.00">init/relation/articles</text>
</g>
<!-- process/
init/app&#45;&gt;process/
init/relation/articles -->
<g id="edge1" class="edge"><title>process/
init/app&#45;&gt;process/
init/relation/articles</title>
<path fill="none" stroke="#999999" d="M69.871,-39.7523C69.871,-47.5644 69.871,-56.7923 69.871,-65.419"/>
<polygon fill="#999999" stroke="#999999" points="66.3711,-65.5079 69.871,-75.5079 73.3711,-65.5079 66.3711,-65.5079"/>
</g>
<!-- data/
articles -->
<g id="node3" class="node"><title>data/
articles</title>
<polygon fill="none" stroke="#2222cc" points="96.871,-187.196 46.871,-187.196 42.871,-183.196 42.871,-151.196 92.871,-151.196 96.871,-155.196 96.871,-187.196"/>
<polyline fill="none" stroke="#2222cc" points="92.871,-183.196 42.871,-183.196 "/>
<polyline fill="none" stroke="#2222cc" points="92.871,-183.196 92.871,-151.196 "/>
<polyline fill="none" stroke="#2222cc" points="92.871,-183.196 96.871,-187.196 "/>
<text text-anchor="middle" x="69.871" y="-171.196" font-family="Ubuntu Mono,Envy Code R,Oxygen Mono,Consolas,Menlo,Monaco,Andale Mono" font-size="10.00">data/</text>
<text text-anchor="middle" x="69.871" y="-161.196" font-family="Ubuntu Mono,Envy Code R,Oxygen Mono,Consolas,Menlo,Monaco,Andale Mono" font-size="10.00">articles</text>
</g>
<!-- process/
init/relation/articles&#45;&gt;data/
articles -->
<g id="edge2" class="edge"><title>process/
init/relation/articles&#45;&gt;data/
articles</title>
<path fill="none" stroke="#999999" d="M69.871,-115.261C69.871,-123.178 69.871,-132.533 69.871,-141.159"/>
<polygon fill="#999999" stroke="#999999" points="66.3711,-141.175 69.871,-151.175 73.3711,-141.175 66.3711,-141.175"/>
</g>
</g>
</svg>
